<svg width="220" height="232" viewBox="0 0 220 232" fill="none" xmlns="http://www.w3.org/2000/svg">
<path d="M113.5 41C123.379 41 132.854 44.9245 139.84 51.9103C146.825 58.896 150.75 68.3707 150.75 78.25C150.75 88.1293 146.825 97.604 139.84 104.59C132.854 111.575 123.379 115.5 113.5 115.5C103.621 115.5 94.146 111.575 87.1603 104.59C80.1745 97.604 76.25 88.1293 76.25 78.25C76.25 68.3707 80.1745 58.896 87.1603 51.9103C94.146 44.9245 103.621 41 113.5 41ZM113.5 134.125C154.661 134.125 188 150.794 188 171.375V190H39V171.375C39 150.794 72.3387 134.125 113.5 134.125Z" fill="black"/>
<path d="M5 51.5359C5 12.7359 36 4.36922 51.5 5.03589" stroke="black" stroke-width="10"/>
<path d="M51.5359 226.5C12.7359 226.5 4.36922 195.5 5.03589 180" stroke="black" stroke-width="10"/>
<path d="M214.536 179.964C214.536 218.764 183.536 227.131 168.036 226.464" stroke="black" stroke-width="10"/>
<path d="M168 5C206.8 5 215.167 36 214.5 51.5" stroke="black" stroke-width="10"/>
</svg>
